<svg width="73" height="73" viewBox="0 0 73 73" fill="none" xmlns="http://www.w3.org/2000/svg">
<path d="M5.61569 6.91162V15.1192H13.3913V6.91162H5.61569Z" fill="#FDFDFD"/>
<path d="M21.1668 6.91162V30.6703C21.1668 35.1221 20.6107 39.8716 22.4104 44.0616C26.6535 53.94 40.2708 56.2295 47.8742 48.7338C56.9517 39.7844 50.4116 22.5704 37.5819 22.4628C37.5819 24.4927 36.8502 28.2885 38.0259 30.0243C40.0066 32.9488 43.6866 33.1795 43.8564 37.5819C44.1648 45.554 33.1558 46.9804 30.0883 40.1738C28.6758 37.0394 29.3744 32.7275 29.3744 29.3744V6.91162H21.1668Z" fill="#FAD60B"/>
<path d="M38.0139 6.91162V15.1192C51.0419 15.227 61.3104 28.357 59.4831 41.0377C58.0753 50.806 49.6988 58.7107 40.1738 60.3687C36.9156 60.9358 33.8973 61.0149 30.6703 60.1496C27.098 59.192 23.8397 56.8951 21.1685 54.3901C17.9404 51.3628 15.2805 47.523 14.1515 43.1976C12.4485 36.6724 13.3913 29.153 13.3913 22.4628H5.61569C5.61569 30.8637 4.63217 39.8405 7.23392 47.9493C9.05521 53.6255 12.592 58.5405 17.279 62.1981C21.1879 65.2478 25.8323 67.4181 30.6703 68.5006C34.6272 69.3862 38.8088 69.3862 42.7656 68.5006C70.9192 62.2007 76.9043 23.035 50.5412 9.85346C46.7234 7.94448 42.2652 6.92333 38.0139 6.91162Z" fill="#FDFDFD"/>
</svg>
