<svg width="128" height="28" viewBox="0 0 128 28" fill="none" xmlns="http://www.w3.org/2000/svg">
<path d="M38.1683 7.436V20H35.6483V7.436H38.1683ZM46.184 9.884C47.372 9.884 48.332 10.262 49.064 11.018C49.796 11.762 50.162 12.806 50.162 14.15V20H47.642V14.492C47.642 13.7 47.444 13.094 47.048 12.674C46.652 12.242 46.112 12.026 45.428 12.026C44.732 12.026 44.18 12.242 43.772 12.674C43.376 13.094 43.178 13.7 43.178 14.492V20H40.658V10.028H43.178V11.27C43.514 10.838 43.94 10.502 44.456 10.262C44.984 10.01 45.56 9.884 46.184 9.884ZM56.3744 20.162C55.5584 20.162 54.8264 20.018 54.1784 19.73C53.5304 19.43 53.0144 19.028 52.6304 18.524C52.2584 18.02 52.0544 17.462 52.0184 16.85H54.5564C54.6044 17.234 54.7904 17.552 55.1144 17.804C55.4504 18.056 55.8644 18.182 56.3564 18.182C56.8364 18.182 57.2084 18.086 57.4724 17.894C57.7484 17.702 57.8864 17.456 57.8864 17.156C57.8864 16.832 57.7184 16.592 57.3824 16.436C57.0584 16.268 56.5364 16.088 55.8164 15.896C55.0724 15.716 54.4604 15.53 53.9804 15.338C53.5124 15.146 53.1044 14.852 52.7564 14.456C52.4204 14.06 52.2524 13.526 52.2524 12.854C52.2524 12.302 52.4084 11.798 52.7204 11.342C53.0444 10.886 53.5004 10.526 54.0884 10.262C54.6884 9.998 55.3904 9.866 56.1944 9.866C57.3824 9.866 58.3304 10.166 59.0384 10.766C59.7464 11.354 60.1364 12.152 60.2084 13.16H57.7964C57.7604 12.764 57.5924 12.452 57.2924 12.224C57.0044 11.984 56.6144 11.864 56.1224 11.864C55.6664 11.864 55.3124 11.948 55.0604 12.116C54.8204 12.284 54.7004 12.518 54.7004 12.818C54.7004 13.154 54.8684 13.412 55.2044 13.592C55.5404 13.76 56.0624 13.934 56.7704 14.114C57.4904 14.294 58.0844 14.48 58.5524 14.672C59.0204 14.864 59.4224 15.164 59.7584 15.572C60.1064 15.968 60.2864 16.496 60.2984 17.156C60.2984 17.732 60.1364 18.248 59.8124 18.704C59.5004 19.16 59.0444 19.52 58.4444 19.784C57.8564 20.036 57.1664 20.162 56.3744 20.162ZM65.301 12.098V16.922C65.301 17.258 65.379 17.504 65.535 17.66C65.703 17.804 65.979 17.876 66.363 17.876H67.533V20H65.949C63.825 20 62.763 18.968 62.763 16.904V12.098H61.575V10.028H62.763V7.562H65.301V10.028H67.533V12.098H65.301ZM68.6975 14.978C68.6975 13.97 68.8955 13.076 69.2915 12.296C69.6995 11.516 70.2455 10.916 70.9295 10.496C71.6255 10.076 72.3995 9.866 73.2515 9.866C73.9955 9.866 74.6435 10.016 75.1955 10.316C75.7595 10.616 76.2095 10.994 76.5455 11.45V10.028H79.0835V20H76.5455V18.542C76.2215 19.01 75.7715 19.4 75.1955 19.712C74.6315 20.012 73.9775 20.162 73.2335 20.162C72.3935 20.162 71.6255 19.946 70.9295 19.514C70.2455 19.082 69.6995 18.476 69.2915 17.696C68.8955 16.904 68.6975 15.998 68.6975 14.978ZM76.5455 15.014C76.5455 14.402 76.4255 13.88 76.1855 13.448C75.9455 13.004 75.6215 12.668 75.2135 12.44C74.8055 12.2 74.3675 12.08 73.8995 12.08C73.4315 12.08 72.9995 12.194 72.6035 12.422C72.2075 12.65 71.8835 12.986 71.6315 13.43C71.3915 13.862 71.2715 14.378 71.2715 14.978C71.2715 15.578 71.3915 16.106 71.6315 16.562C71.8835 17.006 72.2075 17.348 72.6035 17.588C73.0115 17.828 73.4435 17.948 73.8995 17.948C74.3675 17.948 74.8055 17.834 75.2135 17.606C75.6215 17.366 75.9455 17.03 76.1855 16.598C76.4255 16.154 76.5455 15.626 76.5455 15.014Z" fill="white"/>
<path d="M88.6727 13.556C89.3807 13.688 89.9627 14.042 90.4187 14.618C90.8747 15.194 91.1027 15.854 91.1027 16.598C91.1027 17.27 90.9347 17.864 90.5987 18.38C90.2747 18.884 89.8007 19.28 89.1767 19.568C88.5527 19.856 87.8147 20 86.9627 20H81.5447V7.436H86.7287C87.5807 7.436 88.3127 7.574 88.9247 7.85C89.5487 8.126 90.0167 8.51 90.3287 9.002C90.6527 9.494 90.8147 10.052 90.8147 10.676C90.8147 11.408 90.6167 12.02 90.2207 12.512C89.8367 13.004 89.3207 13.352 88.6727 13.556ZM84.0647 12.62H86.3687C86.9687 12.62 87.4307 12.488 87.7547 12.224C88.0787 11.948 88.2407 11.558 88.2407 11.054C88.2407 10.55 88.0787 10.16 87.7547 9.884C87.4307 9.608 86.9687 9.47 86.3687 9.47H84.0647V12.62ZM86.6027 17.948C87.2147 17.948 87.6887 17.804 88.0247 17.516C88.3727 17.228 88.5467 16.82 88.5467 16.292C88.5467 15.752 88.3667 15.332 88.0067 15.032C87.6467 14.72 87.1607 14.564 86.5487 14.564H84.0647V17.948H86.6027ZM92.4631 14.978C92.4631 13.97 92.6611 13.076 93.0571 12.296C93.4651 11.516 94.0111 10.916 94.6951 10.496C95.3911 10.076 96.1651 9.866 97.0171 9.866C97.7611 9.866 98.4091 10.016 98.9611 10.316C99.5251 10.616 99.9751 10.994 100.311 11.45V10.028H102.849V20H100.311V18.542C99.9871 19.01 99.5371 19.4 98.9611 19.712C98.3971 20.012 97.7431 20.162 96.9991 20.162C96.1591 20.162 95.3911 19.946 94.6951 19.514C94.0111 19.082 93.4651 18.476 93.0571 17.696C92.6611 16.904 92.4631 15.998 92.4631 14.978ZM100.311 15.014C100.311 14.402 100.191 13.88 99.9511 13.448C99.7111 13.004 99.3871 12.668 98.9791 12.44C98.5711 12.2 98.1331 12.08 97.6651 12.08C97.1971 12.08 96.7651 12.194 96.3691 12.422C95.9731 12.65 95.6491 12.986 95.3971 13.43C95.1571 13.862 95.0371 14.378 95.0371 14.978C95.0371 15.578 95.1571 16.106 95.3971 16.562C95.6491 17.006 95.9731 17.348 96.3691 17.588C96.7771 17.828 97.2091 17.948 97.6651 17.948C98.1331 17.948 98.5711 17.834 98.9791 17.606C99.3871 17.366 99.7111 17.03 99.9511 16.598C100.191 16.154 100.311 15.626 100.311 15.014ZM110.836 9.884C112.024 9.884 112.984 10.262 113.716 11.018C114.448 11.762 114.814 12.806 114.814 14.15V20H112.294V14.492C112.294 13.7 112.096 13.094 111.7 12.674C111.304 12.242 110.764 12.026 110.08 12.026C109.384 12.026 108.832 12.242 108.424 12.674C108.028 13.094 107.83 13.7 107.83 14.492V20H105.31V10.028H107.83V11.27C108.166 10.838 108.592 10.502 109.108 10.262C109.636 10.01 110.212 9.884 110.836 9.884ZM123.115 20L119.731 15.752V20H117.211V6.68H119.731V14.258L123.079 10.028H126.355L121.963 15.032L126.391 20H123.115Z" fill="#FFD700"/>
<path d="M0.491013 0.0658569V3.70658H3.94011V0.0658569H0.491013Z" fill="#FDFDFD"/>
<path d="M7.38922 0.0658569V10.6048C7.38922 12.5795 7.14253 14.6863 7.94086 16.5449C9.82302 20.9268 15.8634 21.9424 19.2361 18.6174C23.2627 14.6476 20.3617 7.01181 14.6707 6.96406C14.6707 7.86453 14.3461 9.54824 14.8676 10.3182C15.7462 11.6155 17.3786 11.7178 17.4539 13.6706C17.5907 17.2069 12.7073 17.8397 11.3466 14.8203C10.7201 13.43 11.0299 11.5173 11.0299 10.0299V0.0658569H7.38922Z" fill="#FAD60B"/>
<path d="M14.8623 0.0658569V3.70658C20.6413 3.75442 25.1962 9.57863 24.3856 15.2036C23.7612 19.5366 20.0455 23.043 15.8204 23.7784C14.3751 24.03 13.0362 24.0651 11.6048 23.6813C10.0202 23.2565 8.57486 22.2376 7.38998 21.1265C5.95804 19.7836 4.77814 18.0803 4.27737 16.1617C3.52194 13.2672 3.94013 9.93173 3.94013 6.96406H0.491026C0.491026 10.6905 0.0547526 14.6725 1.20884 18.2695C2.01674 20.7873 3.58558 22.9675 5.66468 24.5899C7.39858 25.9427 9.45877 26.9054 11.6048 27.3856C13.36 27.7784 15.2149 27.7784 16.9701 27.3856C29.4585 24.5911 32.1133 7.21791 20.4192 1.37081C18.7257 0.524013 16.7481 0.0710497 14.8623 0.0658569Z" fill="#FDFDFD"/>
</svg>
