<svg width="39" height="40" viewBox="0 0 39 40" fill="none" xmlns="http://www.w3.org/2000/svg">
<path d="M34.4966 4.93117C33.6963 4.10976 32.5118 3.80374 31.4074 4.12586L5.65282 11.6152C4.48754 11.939 3.6616 12.8683 3.43911 14.0489C3.21182 15.2504 4.00574 16.7757 5.04297 17.4135L13.0959 22.3629C13.9218 22.8702 14.9878 22.743 15.6713 22.0537L24.8927 12.7749C25.3569 12.2917 26.1252 12.2917 26.5894 12.7749C27.0536 13.242 27.0536 13.999 26.5894 14.4821L17.352 23.7625C16.6669 24.4503 16.5389 25.5213 17.0431 26.3524L21.9635 34.486C22.5397 35.4524 23.5321 36 24.6206 36C24.7486 36 24.8927 36 25.0207 35.9839C26.2693 35.8228 27.2617 34.9692 27.6298 33.7612L35.2649 8.03967C35.6011 6.94445 35.297 5.75259 34.4966 4.93117Z" fill="#FFD700"/>
</svg>
