<svg width="40" height="40" viewBox="0 0 40 40" fill="none" xmlns="http://www.w3.org/2000/svg">
<path fill-rule="evenodd" clip-rule="evenodd" d="M19.5649 35.8619C19.7421 35.9544 19.9402 36.0015 20.1384 35.9999C20.3365 35.9984 20.533 35.9497 20.7118 35.8556L26.4204 32.8039C28.0392 31.941 29.3069 30.9761 30.2959 29.8527C32.4463 27.4051 33.6206 24.2813 33.5996 21.0602L33.532 10.4352C33.5256 9.21138 32.7218 8.11938 31.533 7.72243L20.9131 4.1593C20.2737 3.94279 19.573 3.94749 18.9448 4.17029L8.36516 7.8605C7.18284 8.27314 6.39356 9.37298 6.4 10.5983L6.46766 21.2155C6.4886 24.4413 7.70312 27.551 9.88895 29.9735C10.8876 31.0812 12.1666 32.032 13.8032 32.8808L19.5649 35.8619ZM18.0537 23.3743C18.2921 23.6034 18.6014 23.7163 18.9106 23.7132C19.2199 23.7116 19.5276 23.5955 19.7627 23.3633L26.0013 17.213C26.47 16.7501 26.4652 16.0064 25.9916 15.5498C25.5164 15.0933 24.7513 15.0964 24.2826 15.5593L18.8929 20.8718L16.6861 18.7505C16.211 18.294 15.4475 18.2987 14.9771 18.7615C14.5084 19.2244 14.5132 19.9681 14.9884 20.4246L18.0537 23.3743Z" fill="#FFD700"/>
</svg>
